<svg xmlns="http://www.w3.org/2000/svg" width="22" height="22" viewBox="0 0 48 48">
  <g>
    <path fill="#4285F4" d="M24 9.5c3.54 0 6.7 1.22 9.2 3.23l6.9-6.9C35.64 2.13 30.14 0 24 0 14.82 0 6.73 5.8 2.69 14.09l8.06 6.26C12.5 13.97 17.77 9.5 24 9.5z"/>
    <path fill="#34A853" d="M46.1 24.55c0-1.64-.15-3.22-.42-4.74H24v9.01h12.4c-.54 2.9-2.18 5.36-4.65 7.01l7.18 5.59C43.98 37.13 46.1 31.36 46.1 24.55z"/>
    <path fill="#FBBC05" d="M10.75 28.35A14.5 14.5 0 0 1 9.5 24c0-1.52.26-2.99.72-4.35l-8.06-6.26A23.93 23.93 0 0 0 0 24c0 3.77.9 7.34 2.49 10.49l8.26-6.14z"/>
    <path fill="#EA4335" d="M24 48c6.14 0 11.3-2.03 15.04-5.51l-7.18-5.59c-2 1.34-4.56 2.13-7.86 2.13-6.23 0-11.5-4.47-13.25-10.49l-8.26 6.14C6.73 42.2 14.82 48 24 48z"/>
    <path fill="none" d="M0 0h48v48H0z"/>
  </g>
</svg>
